<?xml version="1.0" encoding="UTF-8" standalone="no"?>
<svg id="svg4905" xmlns:rdf="http://www.w3.org/1999/02/22-rdf-syntax-ns#" xmlns="http://www.w3.org/2000/svg" height="51.312mm" width="152.35mm" version="1.1" xmlns:cc="http://creativecommons.org/ns#" xmlns:dc="http://purl.org/dc/elements/1.1/" viewBox="0 0 539.81448 181.81251">
 <g id="layer1" transform="translate(-156.56 -201.39)">
  <g id="g6212" stroke-width="0">
   <path id="path6162" d="m294.41 289.52v3.4824c1.914 1.0744 4.1154 1.627 6.707 1.627 2.6758 0 5.1772-0.63546 7.5879-1.9316 0.39291-0.21856 0.76889-0.45337 1.1367-0.69727v-2.4805h-15.432zm15.432 5.9648c-2.7397 1.4174-5.6723 2.1445-8.7246 2.1445-2.423 0-4.6736-0.43-6.707-1.291v11.092c0.42375 0.0134 0.83267 0.041 1.2695 0.041 5.5696 0 10.253-1.0573 14.162-3.166v-8.8203zm0 12.018c-4.0813 1.9542-8.8084 2.9688-14.162 2.9688-0.43365 0-0.84508-0.0302-1.2695-0.043v71.268h54.561v-11.805h-39.129v-62.389z"/>
   <path id="path6164" d="m388.73 311.58c-0.78255 0-1.5524 0.0275-2.3164 0.0684l-0.0312 0.0879-0.002 0.006c-1.411 4.0375-3.0646 7.8098-4.9453 11.33 2.1846-0.78796 4.4711-1.1973 6.8398-1.1973 2.5088 0 4.934 0.49659 7.2285 1.4785 2.4271 0.9954 4.5428 2.5569 6.291 4.627 1.8757 2.1012 3.318 4.804 4.3711 8.0625 0.00039 0.001-0.00039 0.003 0 0.004 1.0744 3.2247 1.5879 7.0545 1.5879 11.5 0 4.6433-0.50977 8.6174-1.582 11.941l-0.004 0.008-0.002 0.006c-1.0546 3.1638-2.4452 5.7692-4.2285 7.7754-1.763 1.9833-3.8997 3.4463-6.3418 4.3359-2.2737 0.86436-4.6247 1.3027-7.0176 1.3027-2.5121 0-4.9799-0.4949-7.3652-1.4707l-0.0117-0.006-0.0117-0.004c-2.3316-0.99927-4.4292-2.5547-6.2676-4.6094l-0.0274-0.0293-0.0273-0.0332c-1.7372-2.1714-3.1209-4.7982-4.1738-7.8516l-0.002-0.006-0.004-0.008c-1.0736-3.2207-1.5879-7.0024-1.5879-11.352 0-3.4268 0.27113-6.4728 0.82422-9.1582-4.4476 3.9464-9.8763 7.0246-16.24 9.2285-0.003 0.22983-0.0137 0.45357-0.0137 0.68555 0 5.6864 0.88096 10.676 2.6113 15.002 1.7411 4.3528 4.1372 7.9855 7.1953 10.951 3.0728 2.879 6.6638 5.0851 10.816 6.6309l0.004 0.002c4.2534 1.5451 8.8529 2.3223 13.828 2.3223 4.9699 0 9.5627-0.82484 13.812-2.4668 4.254-1.6436 7.9492-3.9967 11.129-7.0801 3.158-3.0623 5.6036-6.8406 7.3477-11.395l0.004-0.0137 0.006-0.0137c1.8319-4.5315 2.7617-9.6699 2.7617-15.451 0-5.893-0.88577-10.986-2.6133-15.305-1.7432-4.3579-4.1398-7.9953-7.2031-10.963-3.063-2.9673-6.684-5.1607-10.922-6.6055l-0.0195-0.008-0.0195-0.008c-4.1492-1.5439-8.6981-2.3223-13.678-2.3223zm-5.6289 0.37695c-2.8605 0.39139-5.587 1.0866-8.1836 2.0898-4.254 1.6436-7.9492 3.9986-11.129 7.082-3.1559 3.0603-5.6561 6.8925-7.502 11.553-1.3324 3.4814-2.1575 7.3585-2.4707 11.637 7.6644-2.8426 13.736-6.9501 18.205-12.422 0.0607-0.0744 0.1173-0.15378 0.17773-0.22852 0.77797-1.5855 1.6735-2.9711 2.707-4.1367 0.36593-0.43351 0.74928-0.83568 1.1445-1.2168 2.7632-4.2912 5.1144-9.0741 7.0508-14.357z"/>
   <path id="path6166" d="m468.53 311.58c-5.4794 0-10.476 0.87937-15.023 2.6211l-0.008 0.002-0.01 0.004c-4.4496 1.6444-8.2864 4.0448-11.561 7.2227-3.1661 3.0701-5.6648 6.81-7.5078 11.268-1.7343 4.4372-2.6113 9.3755-2.6113 14.85 0 5.9815 0.93153 11.163 2.752 15.576 1.939 4.456 4.5302 8.1437 7.7871 11.113 3.269 2.9805 7.1058 5.2387 11.561 6.7891 4.4657 1.4536 9.2823 2.1856 14.471 2.1856 4.2262 0 8.0809-0.44209 11.57-1.3144 3.0738-0.76846 5.3421-1.6318 7.3086-2.5137l-2.6543-9.5781c-1.4933 0.68514-2.9762 1.3698-4.8906 1.9824l-0.0176 0.006-0.0195 0.006c-2.5892 0.75519-5.5486 1.1172-8.8809 1.1172-2.8675 0-5.7341-0.42511-8.584-1.2695l-0.008-0.002-0.006-0.004c-2.8292-0.87051-5.4003-2.3504-7.666-4.4004-2.3018-2.0826-4.1352-4.7989-5.5137-8.0859-1.4094-3.3609-2.0801-7.3839-2.0801-12.061 0-8.0113 2.1116-14.362 6.4766-18.73 4.3158-4.4192 10.126-6.6387 17.08-6.6387 2.7532 0 5.4157 0.37141 7.9727 1.1172 1.953 0.56963 3.8397 1.4903 5.7207 2.4316l2.9121-9.7891c-3.2691-1.4559-6.3537-2.5094-9.1699-3.0215-3.2423-0.58951-6.375-0.88281-9.4004-0.88281z"/>
   <path id="path6168" d="m499.41 277.13v15.078c0.46556 0.27031 0.94015 0.51321 1.4277 0.72266 2.0418 0.83337 4.1006 1.2441 6.2168 1.2441 2.0339 0 4.0107-0.36568 5.9629-1.1094l0.01-0.004 0.0117-0.004c0.41463-0.15077 0.80988-0.33066 1.1992-0.51953v-15.408h-14.828zm0 18.445v11.311c2.3053 0.38811 4.7016 0.58398 7.1914 0.58398 2.6525 0 5.1938-0.2422 7.6367-0.71093v-10.953c-0.056 0.0211-0.10971 0.0459-0.16601 0.0664-2.2737 0.86436-4.6247 1.3027-7.0176 1.3027-2.5121 0-4.9799-0.4949-7.3652-1.4707l-0.0117-0.006-0.0117-0.004c-0.0864-0.037-0.17006-0.0806-0.25586-0.11914zm14.828 14.238c-2.4626 0.43664-5.0092 0.65625-7.6367 0.65625-2.471 0-4.8665-0.18884-7.1914-0.55273v71.777h14.828v-50.352l0.45899-0.44336c2.7256-2.6207 5.6861-4.6854 8.8672-6.1699 3.1893-1.4884 6.3847-2.2559 9.5469-2.2559 4.3003 0 7.8285 1.2947 10.168 3.9648 2.4998 2.6353 3.5684 6.7115 3.5684 12.039v43.217h14.828v-46.691c0-3.4869-0.48335-6.6454-1.4336-9.4961l-0.008-0.0215-0.006-0.0234c-0.84757-2.8252-2.1933-5.2298-4.0547-7.2773-1.8462-2.0308-4.201-3.6097-7.1367-4.7461l-0.0273-0.0117-0.0273-0.0117c-2.7872-1.2078-6.2059-1.8398-10.281-1.8398-4.3433 0-8.3576 0.81563-12.092 2.4434l-0.008 0.004-0.008 0.004c-3.6998 1.5578-6.9934 3.5436-9.8965 5.9629l-2.459 2.0508v-12.227z"/>
   <path id="path6170" d="m608.65 311.58c-5.1682 0-9.8498 0.87445-14.086 2.6074-4.2484 1.738-7.8318 4.179-10.805 7.3438-2.9778 3.1699-5.2877 6.9635-6.9375 11.428-1.6436 4.4473-2.4766 9.4023-2.4766 14.891 0 6.2845 0.98469 11.61 2.8945 16.008 2.0346 4.4518 4.7182 8.0849 8.0644 10.953 3.3641 2.8835 7.2439 4.9936 11.689 6.3477 4.5858 1.366 9.4718 2.0527 14.678 2.0527 5.2531 0 9.8305-0.44696 13.721-1.3223 3.4434-0.77478 6.3714-1.724 8.9434-2.7793l-2.6934-9.7207c-2.4377 0.94982-4.9122 1.8373-7.5527 2.4336-3.1593 0.73625-6.7421 1.0938-10.756 1.0938-6.8897 0-12.651-1.6892-17.088-5.1523l-0.006-0.004-0.008-0.006c-4.4155-3.5324-6.6055-8.9719-6.6055-15.826v-2.1035h48.797v-6.6582c0-10.102-2.7072-17.759-8.0391-23.281-5.3457-5.5366-12.472-8.3047-21.734-8.3047zm-0.75391 9.6894c2.5872 0 4.89 0.49085 6.8516 1.5195 2.0035 0.90061 3.6793 2.222 4.9316 3.9297 1.2287 1.6754 2.1129 3.6218 2.6582 5.7949 0.53755 2.044 0.80664 4.1891 0.80664 6.4219v1.4844l-33.412 0.33398 0.20703-1.6992c0.63524-5.1878 2.5307-9.5172 5.6992-12.795 3.1902-3.3002 7.3922-4.9902 12.258-4.9902z"/>
   <path id="path6172" d="m687.22 311.58c-5.2758 0-9.5302 1.3643-12.973 4.0625l-0.01 0.008-0.01 0.008c-3.5337 2.6742-6.0668 5.9174-7.6777 9.8027l-1.998 4.8184-2.9219-17.34h-10.98v68.76h14.676v-34.908c0-7.8847 1.8176-13.921 5.7266-17.83 3.7827-3.7827 8.575-5.7266 14.055-5.7266 2.4132 0 4.5058 0.26147 6.3066 0.82031 0.97655 0.24647 1.722 0.61976 2.5488 0.94727l2.4062-11.549c-0.944-0.40205-1.8903-0.8072-3.2031-1.1719-1.6472-0.45756-3.6323-0.70117-5.9453-0.70117z"/>
   <path id="path6049" d="m203.55 212.27c-7.0918 0-13.496 1.1316-19.246 3.373l-0.0117 0.004-0.01 0.004c-5.7585 2.1472-10.701 5.251-14.879 9.3301-4.0674 4.0691-7.2215 9.0583-9.4707 15.023l-0.002 0.004-0.002 0.004c-2.2417 5.8479-3.375 12.457-3.375 19.857 0 7.5962 1.183 14.349 3.5195 20.291 2.3473 5.8683 5.5549 10.815 9.627 14.891 4.1813 3.9837 9.0782 7.0437 14.74 9.1914 5.7634 2.148 11.97 3.2266 18.654 3.2266 6.1638 0 11.348-0.50152 15.523-1.4726 3.726-0.86653 6.7439-1.9034 9.2598-3.041l-3.0898-10.938c-2.3024 1.0881-4.745 2.0242-7.4297 2.6953-3.3906 0.84764-7.4801 1.252-12.299 1.252-4.3848 0-8.5377-0.68068-12.432-2.0488l-0.006-0.002-0.006-0.002c-3.8367-1.3855-7.2198-3.5862-10.09-6.5625-2.8829-2.9897-5.1517-6.7566-6.8223-11.246l-0.002-0.004-0.002-0.006c-1.6863-4.6373-2.5059-10.048-2.5059-16.225 0-6.3734 0.81613-11.833 2.5098-16.385l0.004-0.01 0.004-0.008c1.7712-4.5843 4.0902-8.35 6.9863-11.246 2.9747-2.9747 6.4629-5.1238 10.404-6.4043 3.9846-1.362 8.1792-2.043 12.561-2.043 4.2391 0 8.0046 0.46411 11.297 1.4199 2.6575 0.77152 5.2516 1.8878 7.832 3.082l3.3711-11.078c-2.5918-1.2347-5.5828-2.3619-9.1406-3.3164-3.9407-1.0573-9.1128-1.6113-15.473-1.6113z"/>
   <path id="path6051" d="m244.02 201.39v104.57h14.525v-104.57h-14.525z"/>
   <path id="path6053" d="m305.65 235.84c-5.309 0-10.142 0.68741-14.512 2.0469l-0.0137 0.006-0.0156 0.004c-3.9734 1.1479-7.9085 2.799-11.818 4.8281l4.9434 9.5391c3.3483-1.839 6.4931-3.2716 9.3652-4.1055l0.006-0.002 0.006-0.002c3.3327-0.93732 6.49-1.416 9.4707-1.416 4.1387 0 7.6015 0.90939 10.242 2.8555 2.7706 1.9402 4.0977 5.3098 4.0977 9.5215v6.4863h-12.074c-4.7302 0-9.0914 0.49352-13.09 1.4688l-0.0176 0.004-0.0176 0.004c-3.9823 0.87417-7.3821 2.2219-10.23 4.0234-2.7376 1.7948-4.8776 4.0309-6.4727 6.752-1.56 2.6612-2.3613 5.8479-2.3613 9.6641 0 6.0097 1.9325 10.714 5.875 14.471l0.004 0.004c3.903 3.617 9.357 5.4785 16.643 5.4785 9.1482 0 15.92-2.8387 20.762-8.5352l0.44922-0.5293h2.3301l1.8125 7.5547h11.367v-45.031c0-4.6886-0.68818-8.5694-1.9961-11.652l-0.01-0.0234-0.01-0.0254c-1.2316-3.221-2.994-5.7563-5.3047-7.6973-2.3423-1.9675-5.0988-3.3746-8.332-4.2305l-0.0195-0.006-0.0195-0.006c-3.264-0.95998-6.9476-1.4492-11.059-1.4492zm11.924 38.035v14.393l-0.24414 0.37304c-1.8389 2.8125-4.2516 5.061-7.1758 6.6856l-0.008 0.004-0.008 0.006c-2.8236 1.5204-5.8593 2.293-9.0215 2.293-3.1449 0-6.0025-0.71571-8.4668-2.1719-2.7524-1.6264-4.0605-4.8219-4.0605-8.8457 0-3.3598 1.6089-6.3462 4.4902-8.5723 3.0818-2.4859 7.9908-3.5959 14.781-3.8027l8.1562-0.30274 1.5566-0.0586z"/>
   <path id="path6055" d="m340.54 237.2 29.102 70.023-0.90625 3.084-0.002 0.006c-1.775 5.847-4.6803 10.728-8.7031 14.543-3.4959 3.4004-7.7659 6.0115-12.582 8.0352l6.1816 11.5c7.7579-2.845 13.891-6.9793 18.398-12.498 4.8124-5.8928 8.6582-12.933 11.529-21.15l0.002-0.004 26.033-73.539h-15.076l-11.734 35.348-5.1289 18.436h-2.7207l-5.2832-18.254-13.066-35.529h-16.043z"/>
   <path id="path6057" d="m426.26 214.84v22.359h-10.877v9.9922h10.877v40.326c0 6.3781 1.6525 10.878 4.8106 13.859 3.2139 2.94 8.7052 4.584 16.652 4.584 3.6275 0 6.9899-0.3439 10.092-1.0215 2.7616-0.67022 4.7256-1.3306 6.4355-1.9766l-2.0957-9.7812c-1.3048 0.46752-2.5668 0.95657-4.1914 1.252-2.2945 0.41718-4.499 0.62696-6.6133 0.62696-2.8494 0-5.3548-0.66958-7.3613-2.0859l-0.041-0.0293-0.0391-0.0332c-2.1082-1.7129-2.9727-4.604-2.9727-8.2637v-37.457h19.791v-9.9922h-19.791v-22.359h-14.676z"/>
   <path id="path6059" d="m507.21 235.84c-4.9699 0-9.5627 0.82484-13.812 2.4668-4.254 1.6436-7.9492 3.9986-11.129 7.082-3.1559 3.0603-5.6561 6.8925-7.502 11.553-1.7348 4.5329-2.6172 9.7312-2.6172 15.621 0 5.6864 0.88096 10.676 2.6113 15.002 1.7411 4.3528 4.1372 7.9855 7.1953 10.951 3.0728 2.879 6.6638 5.0851 10.816 6.6309l0.004 0.002c4.2534 1.5451 8.8529 2.3223 13.828 2.3223 4.9699 0 9.5627-0.82484 13.812-2.4668 4.254-1.6436 7.9492-3.9967 11.129-7.0801 3.158-3.0623 5.6036-6.8406 7.3477-11.395l0.006-0.0137 0.004-0.0137c1.8319-4.5315 2.7617-9.6699 2.7617-15.451 0-5.893-0.88381-10.986-2.6113-15.305-1.7432-4.3579-4.1417-7.9953-7.2051-10.963-3.063-2.9673-6.684-5.1607-10.922-6.6055l-0.0195-0.008-0.0195-0.008c-4.1491-1.5439-8.6981-2.3223-13.678-2.3223zm-0.45312 10.295c2.5088 0 4.932 0.49658 7.2266 1.4785 2.4271 0.9954 4.5428 2.5569 6.291 4.627 1.8757 2.1012 3.318 4.804 4.3711 8.0625 0.00039 0.001-0.00039 0.003 0 0.004 1.0744 3.2248 1.5879 7.0545 1.5879 11.5 0 4.6433-0.50976 8.6174-1.582 11.941l-0.004 0.008-0.002 0.006c-1.0546 3.1638-2.4452 5.7692-4.2285 7.7754-1.763 1.9833-3.8997 3.4463-6.3418 4.3359-2.2737 0.86436-4.6247 1.3027-7.0176 1.3027-2.5121 0-4.9799-0.4949-7.3652-1.4707l-0.0117-0.006-0.0117-0.004c-2.3316-0.99926-4.4292-2.5547-6.2676-4.6094l-0.0273-0.0293-0.0273-0.0332c-1.7372-2.1714-3.1209-4.7982-4.1738-7.8516l-0.002-0.006-0.004-0.008c-1.0736-3.2207-1.5859-7.0024-1.5859-11.352 0-4.7416 0.50832-8.7652 1.582-12.094 1.0505-3.2564 2.4362-5.9071 4.2227-7.9219 1.7525-2.0762 3.8478-3.5617 6.2246-4.3594 2.275-0.86191 4.6686-1.2969 7.1465-1.2969z"/>
   <path id="path6061" d="m595.21 235.84c-4.6365 0-8.7762 0.91126-12.486 2.7188-3.7655 1.8345-7.3046 4.3984-10.625 7.7188l-1.8984 1.8984-2.6133-10.977h-11.215v68.762h14.828v-49.715l0.41797-0.43554c2.6213-2.7261 5.529-4.8958 8.7051-6.4863 3.1922-1.6991 6.4095-2.5859 9.5996-2.5859 4.2251 0 7.6936 1.383 9.918 4.1777 2.2639 2.6214 3.3652 6.0903 3.3652 10.164v44.881h14.826v-46.996c0-7.5866-2.0025-13.167-5.9043-17.068l-0.008-0.006-0.006-0.006c-3.9099-4.003-9.4284-6.0449-16.904-6.0449z"/>
  </g>
 </g>
</svg>
