<?xml version="1.0" encoding="UTF-8" standalone="no"?>
<!-- Created with Inkscape (http://www.inkscape.org/) -->

<svg
   xmlns:dc="http://purl.org/dc/elements/1.1/"
   xmlns:cc="http://creativecommons.org/ns#"
   xmlns:rdf="http://www.w3.org/1999/02/22-rdf-syntax-ns#"
   xmlns:svg="http://www.w3.org/2000/svg"
   xmlns="http://www.w3.org/2000/svg"
   xmlns:sodipodi="http://sodipodi.sourceforge.net/DTD/sodipodi-0.dtd"
   xmlns:inkscape="http://www.inkscape.org/namespaces/inkscape"
   width="156.18456mm"
   height="56.601936mm"
   viewBox="0 0 553.40985 200.55803"
   id="svg4905"
   version="1.1"
   inkscape:version="0.91 r"
   sodipodi:docname="clayton-locher-logo-white.svg">
  <defs
     id="defs4907" />
  <sodipodi:namedview
     id="base"
     pagecolor="#ffffff"
     bordercolor="#666666"
     borderopacity="1.0"
     inkscape:pageopacity="0"
     inkscape:pageshadow="2"
     inkscape:zoom="0.98994949"
     inkscape:cx="316.29732"
     inkscape:cy="19.051861"
     inkscape:document-units="px"
     inkscape:current-layer="layer1"
     showgrid="false"
     inkscape:window-width="1366"
     inkscape:window-height="716"
     inkscape:window-x="0"
     inkscape:window-y="0"
     inkscape:window-maximized="1"
     fit-margin-top="0"
     fit-margin-left="0"
     fit-margin-right="0"
     fit-margin-bottom="0" />
  <metadata
     id="metadata4910">
    <rdf:RDF>
      <cc:Work
         rdf:about="">
        <dc:format>image/svg+xml</dc:format>
        <dc:type
           rdf:resource="http://purl.org/dc/dcmitype/StillImage" />
        <dc:title></dc:title>
      </cc:Work>
    </rdf:RDF>
  </metadata>
  <g
     inkscape:label="Layer 1"
     inkscape:groupmode="layer"
     id="layer1"
     transform="translate(-156.55828,-184.17505)">
    <path
       inkscape:connector-curvature="0"
       style="font-style:normal;font-variant:normal;font-weight:600;font-stretch:normal;font-size:151.07434082px;line-height:125%;font-family:'Mukta Vaani';-inkscape-font-specification:'Mukta Vaani Semi-Bold';letter-spacing:-5.37153196px;word-spacing:0px;fill:#ffffff;fill-opacity:1;stroke:#ffffff;stroke-width:0;stroke-linecap:butt;stroke-linejoin:miter;stroke-miterlimit:4;stroke-dasharray:none;stroke-opacity:1"
       d="m 294.40625,289.51953 0,3.48242 c 1.91401,1.07443 4.11541,1.62696 6.70703,1.62696 2.67585,0 5.17719,-0.63546 7.58789,-1.93164 0.39291,-0.21856 0.76889,-0.45337 1.13672,-0.69727 l 0,-2.48047 -15.43164,0 z m 15.43164,5.96485 c -2.73968,1.41744 -5.67226,2.14453 -8.72461,2.14453 -2.42303,0 -4.67358,-0.43 -6.70703,-1.29102 l 0,11.0918 c 0.42375,0.0134 0.83267,0.041 1.26953,0.041 5.56957,0 10.25349,-1.05734 14.16211,-3.16601 l 0,-8.82031 z m 0,12.01757 c -4.08132,1.95423 -8.80844,2.96875 -14.16211,2.96875 -0.43365,0 -0.84508,-0.0302 -1.26953,-0.043 l 0,71.26758 54.56055,0 0,-11.80469 -39.12891,0 0,-62.38867 z"
       id="path6162" />
    <path
       inkscape:connector-curvature="0"
       style="font-style:normal;font-variant:normal;font-weight:600;font-stretch:normal;font-size:151.07434082px;line-height:125%;font-family:'Mukta Vaani';-inkscape-font-specification:'Mukta Vaani Semi-Bold';letter-spacing:-5.37153196px;word-spacing:0px;fill:#ffffff;fill-opacity:1;stroke:#ffffff;stroke-width:0;stroke-linecap:butt;stroke-linejoin:miter;stroke-miterlimit:4;stroke-dasharray:none;stroke-opacity:1"
       d="m 388.73242,311.57617 c -0.78255,0 -1.55241,0.0275 -2.3164,0.0684 l -0.0312,0.0879 -0.002,0.006 c -1.41101,4.03751 -3.06464,7.80981 -4.94531,11.33008 2.18457,-0.78796 4.47109,-1.19727 6.83984,-1.19727 2.50877,0 4.93395,0.49659 7.22852,1.47852 2.42708,0.9954 4.54283,2.55691 6.29102,4.62695 1.87567,2.10119 3.31799,4.80395 4.37109,8.0625 3.9e-4,0.001 -3.9e-4,0.003 0,0.004 1.07438,3.22474 1.58789,7.05448 1.58789,11.5 0,4.64334 -0.50977,8.61737 -1.58203,11.94141 l -0.004,0.008 -0.002,0.006 c -1.0546,3.16379 -2.44524,5.7692 -4.22852,7.77539 -1.76295,1.98332 -3.8997,3.44633 -6.34179,4.33594 -2.2737,0.86436 -4.62473,1.30273 -7.01758,1.30273 -2.51213,0 -4.97993,-0.4949 -7.36524,-1.4707 l -0.0117,-0.006 -0.0117,-0.004 c -2.33162,-0.99927 -4.42923,-2.55474 -6.26758,-4.60937 l -0.0274,-0.0293 -0.0273,-0.0332 c -1.73716,-2.17145 -3.12094,-4.79818 -4.17383,-7.85157 l -0.002,-0.006 -0.004,-0.008 c -1.07357,-3.22071 -1.58789,-7.00243 -1.58789,-11.35156 0,-3.42676 0.27113,-6.47283 0.82422,-9.1582 -4.44756,3.94644 -9.87632,7.02464 -16.24023,9.22851 -0.003,0.22983 -0.0137,0.45357 -0.0137,0.68555 0,5.68637 0.88096,10.67605 2.61132,15.00195 1.7411,4.35275 4.13717,7.98549 7.19532,10.95117 3.0728,2.87895 6.66381,5.08512 10.8164,6.63086 l 0.004,0.002 c 4.25339,1.54508 8.85292,2.32226 13.82812,2.32226 4.96986,0 9.56273,-0.82484 13.8125,-2.4668 4.25397,-1.64357 7.94916,-3.99668 11.12891,-7.08007 3.158,-3.06231 5.6036,-6.84058 7.34766,-11.39454 l 0.004,-0.0137 0.006,-0.0137 c 1.83187,-4.53146 2.76172,-9.66993 2.76172,-15.45117 0,-5.89297 -0.88577,-10.9859 -2.61328,-15.30469 -1.74317,-4.35792 -4.13978,-7.99527 -7.20313,-10.96289 -3.06298,-2.96727 -6.68395,-5.16072 -10.92187,-6.60547 l -0.0195,-0.008 -0.0195,-0.008 c -4.14915,-1.54387 -8.69807,-2.32227 -13.67774,-2.32227 z m -5.6289,0.37695 c -2.8605,0.39139 -5.587,1.08662 -8.1836,2.08985 -4.25397,1.64358 -7.94915,3.99864 -11.1289,7.08203 -3.15592,3.06028 -5.65607,6.89247 -7.50196,11.55273 -1.33237,3.48135 -2.15752,7.35851 -2.4707,11.63672 7.66439,-2.84257 13.7365,-6.95014 18.20508,-12.42187 0.0607,-0.0744 0.1173,-0.15378 0.17773,-0.22852 0.77797,-1.58548 1.67349,-2.97106 2.70703,-4.13672 0.36593,-0.43351 0.74928,-0.83568 1.14453,-1.21679 2.76319,-4.29118 5.11443,-9.07407 7.05079,-14.35743 z"
       id="path6164" />
    <path
       inkscape:connector-curvature="0"
       style="font-style:normal;font-variant:normal;font-weight:600;font-stretch:normal;font-size:151.07434082px;line-height:125%;font-family:'Mukta Vaani';-inkscape-font-specification:'Mukta Vaani Semi-Bold';letter-spacing:-5.37153196px;word-spacing:0px;fill:#ffffff;fill-opacity:1;stroke:#ffffff;stroke-width:0;stroke-linecap:butt;stroke-linejoin:miter;stroke-miterlimit:4;stroke-dasharray:none;stroke-opacity:1"
       d="m 468.52539,311.57617 c -5.47939,0 -10.47559,0.87937 -15.02344,2.6211 l -0.008,0.002 -0.01,0.004 c -4.44965,1.64444 -8.28643,4.04484 -11.56055,7.22266 -3.16607,3.07013 -5.66483,6.80996 -7.50781,11.26758 -1.73427,4.43725 -2.61133,9.37554 -2.61133,14.84961 0,5.98152 0.93153,11.16255 2.75195,15.57617 1.93901,4.45603 4.53016,8.14371 7.78711,11.11328 3.26895,2.98052 7.10575,5.23874 11.56055,6.78906 4.46566,1.4536 9.28232,2.18555 14.4707,2.18555 4.22615,0 8.08086,-0.44209 11.57031,-1.31445 3.07383,-0.76846 5.34209,-1.63183 7.3086,-2.51367 l -2.6543,-9.57813 c -1.49326,0.68514 -2.97619,1.3698 -4.89063,1.98242 l -0.0176,0.006 -0.0195,0.006 c -2.58923,0.75519 -5.54857,1.11719 -8.88086,1.11719 -2.86749,0 -5.73407,-0.42511 -8.58399,-1.26953 l -0.008,-0.002 -0.006,-0.004 c -2.82915,-0.87051 -5.40026,-2.35043 -7.66602,-4.40039 -2.30181,-2.08259 -4.13523,-4.79888 -5.51367,-8.08594 -1.40941,-3.36091 -2.08008,-7.38387 -2.08008,-12.06055 0,-8.01133 2.11157,-14.3617 6.47657,-18.73046 4.31582,-4.41922 10.12639,-6.63868 17.08007,-6.63868 2.75324,0 5.4157,0.37141 7.97266,1.11719 1.95301,0.56963 3.83974,1.49031 5.7207,2.43164 l 2.91211,-9.78906 c -3.26906,-1.45594 -6.35374,-2.50945 -9.16992,-3.02149 -3.2423,-0.58951 -6.37496,-0.88281 -9.40039,-0.88281 z"
       id="path6166" />
    <path
       inkscape:connector-curvature="0"
       style="font-style:normal;font-variant:normal;font-weight:600;font-stretch:normal;font-size:151.07434082px;line-height:125%;font-family:'Mukta Vaani';-inkscape-font-specification:'Mukta Vaani Semi-Bold';letter-spacing:-5.37153196px;word-spacing:0px;fill:#ffffff;fill-opacity:1;stroke:#ffffff;stroke-width:0;stroke-linecap:butt;stroke-linejoin:miter;stroke-miterlimit:4;stroke-dasharray:none;stroke-opacity:1"
       d="m 499.41211,277.13086 0,15.07812 c 0.46556,0.27031 0.94015,0.51321 1.42773,0.72266 2.04178,0.83337 4.10065,1.24414 6.2168,1.24414 2.03394,0 4.01069,-0.36568 5.96289,-1.10937 l 0.01,-0.004 0.0117,-0.004 c 0.41463,-0.15077 0.80988,-0.33066 1.19921,-0.51953 l 0,-15.4082 -14.82812,0 z m 0,18.44531 0,11.31055 c 2.30532,0.38811 4.70162,0.58398 7.19141,0.58398 2.65248,0 5.19385,-0.2422 7.63671,-0.71093 l 0,-10.95313 c -0.056,0.0211 -0.10971,0.0459 -0.16601,0.0664 -2.27369,0.86436 -4.62473,1.30273 -7.01758,1.30273 -2.51212,0 -4.97993,-0.4949 -7.36523,-1.4707 l -0.0117,-0.006 -0.0117,-0.004 c -0.0864,-0.037 -0.17006,-0.0806 -0.25586,-0.11914 z m 14.82812,14.23828 c -2.46259,0.43664 -5.00919,0.65625 -7.63671,0.65625 -2.47096,0 -4.86654,-0.18884 -7.19141,-0.55273 l 0,71.77734 14.82812,0 0,-50.35156 0.45899,-0.44336 c 2.72555,-2.62073 5.68613,-4.68543 8.86719,-6.16992 3.18933,-1.48835 6.38472,-2.25586 9.54687,-2.25586 4.30033,0 7.82854,1.29473 10.16797,3.96484 2.49975,2.63526 3.56836,6.71154 3.56836,12.03907 l 0,43.21679 14.82812,0 0,-46.6914 c 0,-3.4869 -0.48335,-6.64537 -1.43359,-9.4961 l -0.008,-0.0215 -0.006,-0.0234 c -0.84757,-2.82523 -2.19331,-5.22983 -4.05469,-7.27734 -1.84616,-2.03078 -4.20103,-3.6097 -7.13672,-4.7461 l -0.0273,-0.0117 -0.0273,-0.0117 c -2.78717,-1.20777 -6.20592,-1.83985 -10.28126,-1.83985 -4.34333,0 -8.35758,0.81563 -12.09179,2.44336 l -0.008,0.004 -0.008,0.004 c -3.69981,1.55782 -6.99338,3.54364 -9.89648,5.96289 l -2.45899,2.05079 0,-12.22657 z"
       id="path6168" />
    <path
       inkscape:connector-curvature="0"
       style="font-style:normal;font-variant:normal;font-weight:600;font-stretch:normal;font-size:151.07434082px;line-height:125%;font-family:'Mukta Vaani';-inkscape-font-specification:'Mukta Vaani Semi-Bold';letter-spacing:-5.37153196px;word-spacing:0px;fill:#ffffff;fill-opacity:1;stroke:#ffffff;stroke-width:0;stroke-linecap:butt;stroke-linejoin:miter;stroke-miterlimit:4;stroke-dasharray:none;stroke-opacity:1"
       d="m 608.64844,311.57617 c -5.16815,0 -9.84977,0.87445 -14.08594,2.60742 -4.24845,1.73801 -7.83178,4.17904 -10.80469,7.34375 -2.97775,3.16987 -5.28766,6.96347 -6.9375,11.42774 -1.64356,4.4473 -2.47656,9.4023 -2.47656,14.89062 0,6.28449 0.98469,11.6102 2.89453,16.00782 2.03464,4.45179 4.71821,8.08491 8.06445,10.95312 3.3641,2.88351 7.24393,4.99358 11.68946,6.34766 4.58582,1.36599 9.47185,2.05273 14.67773,2.05273 5.25306,0 9.83049,-0.44696 13.7207,-1.32226 3.44344,-0.77478 6.37136,-1.72403 8.94336,-2.7793 l -2.69336,-9.7207 c -2.43772,0.94982 -4.9122,1.83734 -7.55273,2.43359 -3.15931,0.73625 -6.74208,1.09375 -10.75586,1.09375 -6.88969,0 -12.65077,-1.68923 -17.08789,-5.15234 l -0.006,-0.004 -0.008,-0.006 c -4.41551,-3.53241 -6.60547,-8.97192 -6.60547,-15.82617 l 0,-2.10352 48.79688,0 0,-6.6582 c 0,-10.10193 -2.70715,-17.7589 -8.03907,-23.28125 -5.34571,-5.53663 -12.47159,-8.30469 -21.73437,-8.30469 z m -0.75391,9.68945 c 2.58724,0 4.88995,0.49085 6.85156,1.51954 2.00354,0.90061 3.67933,2.22199 4.93164,3.92968 1.22866,1.67544 2.11291,3.62182 2.65821,5.79493 0.53755,2.04403 0.80664,4.18912 0.80664,6.42187 l 0,1.48438 -33.41211,0.33398 0.20703,-1.69922 c 0.63524,-5.18782 2.53074,-9.51718 5.69922,-12.79492 3.19024,-3.30025 7.39225,-4.99024 12.25781,-4.99024 z"
       id="path6170" />
    <path
       inkscape:connector-curvature="0"
       style="font-style:normal;font-variant:normal;font-weight:600;font-stretch:normal;font-size:151.07434082px;line-height:125%;font-family:'Mukta Vaani';-inkscape-font-specification:'Mukta Vaani Semi-Bold';letter-spacing:-5.37153196px;word-spacing:0px;fill:#ffffff;fill-opacity:1;stroke:#ffffff;stroke-width:0;stroke-linecap:butt;stroke-linejoin:miter;stroke-miterlimit:4;stroke-dasharray:none;stroke-opacity:1"
       d="m 687.22461,311.57617 c -5.27576,0 -9.53017,1.36434 -12.97266,4.0625 l -0.01,0.008 -0.01,0.008 c -3.53372,2.67417 -6.06675,5.91743 -7.67773,9.80273 l -1.99805,4.81836 -2.92187,-17.33984 -10.98047,0 0,68.75976 14.67578,0 0,-34.9082 c 0,-7.8847 1.81763,-13.92115 5.72656,-17.83008 3.78266,-3.78266 8.57502,-5.72656 14.05469,-5.72656 2.41322,0 4.50582,0.26147 6.30664,0.82031 0.97655,0.24647 1.72201,0.61976 2.54883,0.94727 l 2.40625,-11.54883 c -0.944,-0.40205 -1.89029,-0.8072 -3.20313,-1.17188 -1.64724,-0.45756 -3.63229,-0.70117 -5.94531,-0.70117 z"
       id="path6172" />
    <path
       inkscape:connector-curvature="0"
       style="font-style:normal;font-variant:normal;font-weight:600;font-stretch:normal;font-size:151.07434082px;line-height:125%;font-family:'Mukta Vaani';-inkscape-font-specification:'Mukta Vaani Semi-Bold';letter-spacing:-3.35720754px;word-spacing:0px;fill:#ffffff;fill-opacity:1;stroke:#ffffff;stroke-width:0;stroke-linecap:butt;stroke-linejoin:miter;stroke-miterlimit:4;stroke-dasharray:none;stroke-opacity:1"
       d="m 203.55469,212.27148 c -7.09185,0 -13.49622,1.13157 -19.2461,3.37305 l -0.0117,0.004 -0.01,0.004 c -5.75852,2.14725 -10.70103,5.25099 -14.87891,9.33008 -4.06735,4.06909 -7.22154,9.05826 -9.4707,15.02344 l -0.002,0.004 -0.002,0.004 c -2.2417,5.84793 -3.375,12.45704 -3.375,19.85742 0,7.59617 1.18299,14.34922 3.51953,20.29102 2.34733,5.8683 5.55491,10.81468 9.62696,14.89062 4.18133,3.98372 9.07818,7.04373 14.74023,9.19141 5.76339,2.14799 11.97025,3.22656 18.6543,3.22656 6.16376,0 11.34756,-0.50152 15.52344,-1.47265 3.72605,-0.86653 6.74392,-1.90339 9.25976,-3.04102 l -3.08984,-10.9375 c -2.30236,1.0881 -4.74503,2.02415 -7.42969,2.69531 -3.39055,0.84764 -7.48006,1.25196 -12.29883,1.25196 -4.38484,0 -8.53767,-0.68068 -12.43164,-2.04883 l -0.006,-0.002 -0.006,-0.002 c -3.83668,-1.38547 -7.21979,-3.58615 -10.08984,-6.5625 -2.88289,-2.98966 -5.15174,-6.75657 -6.82227,-11.24609 l -0.002,-0.004 -0.002,-0.006 c -1.6863,-4.63731 -2.50586,-10.0483 -2.50586,-16.22461 0,-6.37343 0.81613,-11.83313 2.50976,-16.38476 l 0.004,-0.01 0.004,-0.008 c 1.77121,-4.58433 4.09022,-8.34998 6.98632,-11.24609 2.97473,-2.97472 6.46294,-5.12385 10.4043,-6.4043 3.98455,-1.36195 8.17915,-2.04297 12.56055,-2.04297 4.23912,0 8.00463,0.46411 11.29687,1.41992 2.65746,0.77152 5.25159,1.88783 7.83204,3.08203 l 3.37109,-11.07812 c -2.59184,-1.23471 -5.58285,-2.36188 -9.14063,-3.31641 -3.9407,-1.05726 -9.11275,-1.61133 -15.47265,-1.61133 z"
       id="path6049" />
    <path
       inkscape:connector-curvature="0"
       style="font-style:normal;font-variant:normal;font-weight:600;font-stretch:normal;font-size:151.07434082px;line-height:125%;font-family:'Mukta Vaani';-inkscape-font-specification:'Mukta Vaani Semi-Bold';letter-spacing:-3.35720754px;word-spacing:0px;fill:#ffffff;fill-opacity:1;stroke:#ffffff;stroke-width:0;stroke-linecap:butt;stroke-linejoin:miter;stroke-miterlimit:4;stroke-dasharray:none;stroke-opacity:1"
       d="m 244.02344,201.39453 0,104.56641 14.52539,0 0,-104.56641 -14.52539,0 z"
       id="path6051" />
    <path
       inkscape:connector-curvature="0"
       style="font-style:normal;font-variant:normal;font-weight:600;font-stretch:normal;font-size:151.07434082px;line-height:125%;font-family:'Mukta Vaani';-inkscape-font-specification:'Mukta Vaani Semi-Bold';letter-spacing:-3.35720754px;word-spacing:0px;fill:#ffffff;fill-opacity:1;stroke:#ffffff;stroke-width:0;stroke-linecap:butt;stroke-linejoin:miter;stroke-miterlimit:4;stroke-dasharray:none;stroke-opacity:1"
       d="m 305.64648,235.83984 c -5.30904,0 -10.14199,0.68741 -14.51171,2.04688 l -0.0137,0.006 -0.0156,0.004 c -3.97343,1.14788 -7.90848,2.79905 -11.81836,4.82813 l 4.94336,9.53906 c 3.34834,-1.83896 6.4931,-3.27162 9.36523,-4.10547 l 0.006,-0.002 0.006,-0.002 c 3.33269,-0.93732 6.48995,-1.41602 9.4707,-1.41602 4.13873,0 7.60153,0.90939 10.24219,2.85547 2.77056,1.94019 4.09766,5.30978 4.09766,9.52148 l 0,6.48633 -12.07422,0 c -4.73021,0 -9.0914,0.49352 -13.08984,1.46875 l -0.0176,0.004 -0.0176,0.004 c -3.98232,0.87417 -7.38209,2.22188 -10.23047,4.02344 -2.73763,1.79485 -4.87756,4.03092 -6.47266,6.75196 -1.56,2.66119 -2.36132,5.84791 -2.36132,9.66406 0,6.0097 1.93248,10.71393 5.875,14.4707 l 0.004,0.004 c 3.90295,3.617 9.35703,5.47851 16.64258,5.47851 9.14818,0 15.91972,-2.83868 20.76172,-8.53515 l 0.44922,-0.5293 2.33008,0 1.8125,7.55469 11.36718,0 0,-45.03125 c 0,-4.68855 -0.68818,-8.56942 -1.99609,-11.65235 l -0.01,-0.0234 -0.01,-0.0254 c -1.23155,-3.22098 -2.99401,-5.7563 -5.30469,-7.69727 -2.34228,-1.96752 -5.09875,-3.3746 -8.33203,-4.23047 l -0.0195,-0.006 -0.0195,-0.006 c -3.26395,-0.95998 -6.94756,-1.44922 -11.0586,-1.44922 z m 11.92383,38.03516 0,14.39258 -0.24414,0.37304 c -1.83892,2.81247 -4.25165,5.06103 -7.17578,6.68555 l -0.008,0.004 -0.008,0.006 c -2.8236,1.52039 -5.85934,2.29297 -9.02149,2.29297 -3.14491,0 -6.00252,-0.71571 -8.4668,-2.17188 -2.75235,-1.62639 -4.06054,-4.8219 -4.06054,-8.8457 0,-3.35979 1.60887,-6.34624 4.49023,-8.57227 3.08175,-2.48588 7.99084,-3.59588 14.78125,-3.80273 l 8.15625,-0.30274 1.55664,-0.0586 z"
       id="path6053" />
    <path
       inkscape:connector-curvature="0"
       style="font-style:normal;font-variant:normal;font-weight:600;font-stretch:normal;font-size:151.07434082px;line-height:125%;font-family:'Mukta Vaani';-inkscape-font-specification:'Mukta Vaani Semi-Bold';letter-spacing:-3.35720754px;word-spacing:0px;fill:#ffffff;fill-opacity:1;stroke:#ffffff;stroke-width:0;stroke-linecap:butt;stroke-linejoin:miter;stroke-miterlimit:4;stroke-dasharray:none;stroke-opacity:1"
       d="m 340.53516,237.19922 29.10156,70.02344 -0.90625,3.08398 -0.002,0.006 c -1.77499,5.84702 -4.68029,10.72832 -8.70313,14.54297 -3.49592,3.40043 -7.76588,6.01147 -12.58203,8.03515 l 6.18164,11.5 c 7.75791,-2.84501 13.89147,-6.9793 18.39844,-12.49804 4.81245,-5.89281 8.65817,-12.93304 11.52929,-21.15039 l 0.002,-0.004 26.0332,-73.53906 -15.07617,0 -11.73438,35.34766 -5.1289,18.43554 -2.72071,0 -5.2832,-18.2539 -13.06641,-35.5293 -16.04296,0 z"
       id="path6055" />
    <path
       inkscape:connector-curvature="0"
       style="font-style:normal;font-variant:normal;font-weight:600;font-stretch:normal;font-size:151.07434082px;line-height:125%;font-family:'Mukta Vaani';-inkscape-font-specification:'Mukta Vaani Semi-Bold';letter-spacing:-3.35720754px;word-spacing:0px;fill:#ffffff;fill-opacity:1;stroke:#ffffff;stroke-width:0;stroke-linecap:butt;stroke-linejoin:miter;stroke-miterlimit:4;stroke-dasharray:none;stroke-opacity:1"
       d="m 426.26172,214.83984 0,22.35938 -10.87695,0 0,9.99219 10.87695,0 0,40.32617 c 0,6.3781 1.65253,10.87811 4.81055,13.85937 3.21391,2.93997 8.70522,4.58399 16.65234,4.58399 3.62751,0 6.9899,-0.3439 10.0918,-1.02149 2.76159,-0.67022 4.72555,-1.33061 6.43554,-1.97656 l -2.0957,-9.78125 c -1.30481,0.46752 -2.56682,0.95657 -4.19141,1.25195 -2.29446,0.41718 -4.49895,0.62696 -6.61328,0.62696 -2.84939,0 -5.35481,-0.66958 -7.36133,-2.08594 l -0.041,-0.0293 -0.0391,-0.0332 c -2.10818,-1.71289 -2.97266,-4.60403 -2.97266,-8.26367 l 0,-37.45703 19.79102,0 0,-9.99219 -19.79102,0 0,-22.35938 -14.67578,0 z"
       id="path6057" />
    <path
       inkscape:connector-curvature="0"
       style="font-style:normal;font-variant:normal;font-weight:600;font-stretch:normal;font-size:151.07434082px;line-height:125%;font-family:'Mukta Vaani';-inkscape-font-specification:'Mukta Vaani Semi-Bold';letter-spacing:-3.35720754px;word-spacing:0px;fill:#ffffff;fill-opacity:1;stroke:#ffffff;stroke-width:0;stroke-linecap:butt;stroke-linejoin:miter;stroke-miterlimit:4;stroke-dasharray:none;stroke-opacity:1"
       d="m 507.20898,235.83984 c -4.96986,0 -9.56272,0.82484 -13.8125,2.4668 -4.25396,1.64358 -7.94915,3.99864 -11.1289,7.08203 -3.15591,3.06028 -5.65607,6.89247 -7.50196,11.55274 -1.7348,4.53287 -2.61718,9.73125 -2.61718,15.62109 0,5.68637 0.88096,10.67605 2.61133,15.00195 1.7411,4.35275 4.13717,7.98549 7.19531,10.95117 3.0728,2.87897 6.66381,5.08513 10.8164,6.63086 l 0.004,0.002 c 4.25339,1.54508 8.85293,2.32226 13.82813,2.32226 4.96986,0 9.56272,-0.82484 13.8125,-2.46679 4.25396,-1.64358 7.94915,-3.99669 11.1289,-7.08008 3.15801,-3.06231 5.6036,-6.8406 7.34766,-11.39453 l 0.006,-0.0137 0.004,-0.0137 c 1.83187,-4.53146 2.76172,-9.66993 2.76172,-15.45117 0,-5.89297 -0.88381,-10.9859 -2.61133,-15.30469 -1.74316,-4.35791 -4.14172,-7.99527 -7.20507,-10.96289 -3.06299,-2.96727 -6.68396,-5.16072 -10.92188,-6.60547 l -0.0195,-0.008 -0.0195,-0.008 c -4.14914,-1.54387 -8.69807,-2.32227 -13.67774,-2.32227 z m -0.45312,10.29493 c 2.50877,0 4.93199,0.49658 7.22656,1.47851 2.42709,0.9954 4.54284,2.55691 6.29102,4.62695 1.87567,2.10119 3.31799,4.80395 4.37109,8.0625 3.9e-4,10e-4 -3.9e-4,0.003 0,0.004 1.07438,3.22475 1.58789,7.05448 1.58789,11.5 0,4.64334 -0.50976,8.61738 -1.58203,11.94141 l -0.004,0.008 -0.002,0.006 c -1.0546,3.16379 -2.44524,5.7692 -4.22851,7.77539 -1.76296,1.98332 -3.89971,3.44634 -6.3418,4.33594 -2.27369,0.86436 -4.62473,1.30273 -7.01758,1.30273 -2.51212,0 -4.97993,-0.4949 -7.36523,-1.4707 l -0.0117,-0.006 -0.0117,-0.004 c -2.33162,-0.99926 -4.42923,-2.55474 -6.26758,-4.60937 l -0.0273,-0.0293 -0.0273,-0.0332 c -1.73716,-2.17145 -3.12094,-4.79818 -4.17382,-7.85156 l -0.002,-0.006 -0.004,-0.008 c -1.07357,-3.22071 -1.58594,-7.00243 -1.58594,-11.35156 0,-4.74164 0.50832,-8.76524 1.58203,-12.09375 1.05046,-3.25642 2.43619,-5.90707 4.22266,-7.92187 1.75253,-2.07623 3.84785,-3.56166 6.22461,-4.35938 2.27505,-0.86191 4.66855,-1.29687 7.14648,-1.29687 z"
       id="path6059" />
    <path
       inkscape:connector-curvature="0"
       style="font-style:normal;font-variant:normal;font-weight:600;font-stretch:normal;font-size:151.07434082px;line-height:125%;font-family:'Mukta Vaani';-inkscape-font-specification:'Mukta Vaani Semi-Bold';letter-spacing:-3.35720754px;word-spacing:0px;fill:#ffffff;fill-opacity:1;stroke:#ffffff;stroke-width:0;stroke-linecap:butt;stroke-linejoin:miter;stroke-miterlimit:4;stroke-dasharray:none;stroke-opacity:1"
       d="m 595.21094,235.83984 c -4.63646,0 -8.77622,0.91126 -12.48633,2.71875 -3.76552,1.83449 -7.30464,4.39839 -10.625,7.71875 l -1.89844,1.89844 -2.61328,-10.97656 -11.21484,0 0,68.76172 14.82812,0 0,-49.71485 0.41797,-0.43554 c 2.62128,-2.72614 5.52898,-4.89582 8.70508,-6.48633 3.19218,-1.69913 6.40946,-2.58594 9.59961,-2.58594 4.22509,0 7.69364,1.38298 9.91797,4.17774 2.26392,2.62141 3.36523,6.09032 3.36523,10.16406 l 0,44.88086 14.82617,0 0,-46.9961 c 0,-7.58663 -2.00251,-13.16657 -5.90429,-17.06836 l -0.008,-0.006 -0.006,-0.006 c -3.90991,-4.00301 -9.42836,-6.04493 -16.90429,-6.04493 z"
       id="path6061" />
    <text
       xml:space="preserve"
       style="font-style:normal;font-weight:normal;font-size:40px;line-height:125%;font-family:sans-serif;letter-spacing:0px;word-spacing:0px;fill:#ffffff;fill-opacity:0.69999999;stroke:none;stroke-width:1px;stroke-linecap:butt;stroke-linejoin:miter;stroke-opacity:1;"
       x="272.37827"
       y="222.95004"
       id="text6653"
       sodipodi:linespacing="125%"><tspan
         sodipodi:role="line"
         id="tspan6655"
         x="272.37827"
         y="222.95004"
         style="font-style:normal;font-variant:normal;font-weight:500;font-stretch:normal;font-size:55px;font-family:'Mukta Vaani';-inkscape-font-specification:'Mukta Vaani Medium';fill:#ffffff;fill-opacity:0.69999999;">Hi, I'm</tspan></text>
    <path
       inkscape:connector-curvature="0"
       id="path6664"
       style="font-style:normal;font-variant:normal;font-weight:500;font-stretch:normal;font-size:150px;line-height:125%;font-family:'Mukta Vaani';-inkscape-font-specification:'Mukta Vaani Medium';letter-spacing:-3px;word-spacing:0px;fill:#ffffff;fill-opacity:0.69999999;stroke:none;stroke-width:1px;stroke-linecap:butt;stroke-linejoin:miter;stroke-opacity:1"
       d="m 690.01814,374.23309 q 0,-4.35 3,-7.2 3,-3 7.05,-3 4.05,0 6.9,3 3,2.85 3,7.2 0,4.8 -3,7.65 -2.85,2.85 -6.9,2.85 -4.05,0 -7.05,-2.85 -3,-2.85 -3,-7.65 z" />
  </g>
</svg>
