<?xml version="1.0" encoding="UTF-8" standalone="no"?>
<svg id="svg2" xmlns:rdf="http://www.w3.org/1999/02/22-rdf-syntax-ns#" xmlns="http://www.w3.org/2000/svg" enable-background="new 0 0 100 100" xml:space="preserve" height="97.878" width="99.061" version="1.1" y="0px" x="0px" xmlns:cc="http://creativecommons.org/ns#" xmlns:dc="http://purl.org/dc/elements/1.1/" viewBox="0 0 99.060997 97.877998"><path id="path4" fill="#769fcd" d="m91.658 20.936-23.674-20.92-0.002-0.016h-0.075-0.353-5.132-0.339-0.09l-0.002 0.01-47.598 22.396h-7.199l-0.399 0.485-6.238 6.518-0.557 0.576h13.693v24.536 0.273 0.189 0.002l1.958 2.102c0.015 0.334 0.13 0.787 0.636 0.861 0.542 0.077 0.99 0.443 0.99 0.99s-0.442 0.99-0.99 0.99c-0.393 0-0.733-0.229-0.893-0.561l-0.228 0.129c0.207 0.412 0.63 0.693 1.121 0.693 0.691 0 1.252-0.561 1.252-1.252 0-0.692-0.446-1.254-1.102-1.254-0.297 0-0.388-0.27-0.41-0.525l2.028-2.174v-0.001-0.189-0.273-24.536h39.682v67.893h0.207 0.794 12.001 0.824 0.176v-67.893h16.15v7.557h11.172v-16.606h-7.403zm-23.931-19.717 1.333 9.381l-0.014-0.015-3.713-4.675 2.394-4.691zm1.505 10.586 1.334 9.384-5.158-4.693 3.814-4.675v0.001l0.01-0.017zm-10.445 36.339 0.002-0.001 5.271 7.288-5.32 7.355v-14.708l0.047 0.066zm-0.048-1.862v-14.706l5.32 7.355-5.272 7.288v-0.001l-0.048 0.064zm6.015 26.844 5.271 7.287-5.271 7.289-5.271-7.289 5.271-7.287zm-5.967 6.326v-0.002l-0.048 0.064v-14.706l5.32 7.356-5.272 7.288zm0.612-15.654 5.354-7.405 5.357 7.405-5.357 7.403-5.354-7.403zm0.084-16.616 5.271-7.289 5.271 7.289-5.271 7.289-5.271-7.289zm-0.046-16.565h10.635l-5.318 7.351-5.317-7.351zm1.674-19.414 3.813-4.675 3.712 4.675-3.813 4.676-3.712-4.676zm8.889 10.627h-10.479l5.29-4.717 5.189 4.717zm-5.774-5.334-5.292 4.718 1.552-9.435 0.029 0.042v-0.001l3.711 4.676zm6.502 6.63-5.646 5.901-5.646-5.901h11.292zm-3.387-22.548-2.403 4.715-2.302-4.715h4.705zm-5.114 0.614 2.301 4.719-3.813 4.676v-0.001l-0.039 0.042 1.551-9.436zm-0.326-0.703-4.163 21.917h-42.418l46.581-21.917zm-60.143 28.776 5.581-5.832 5.582 5.832h-11.163zm6.35-6.139h11.293l-5.646 5.9-5.647-5.9zm9.735 31.041c-0.267-0.838-1.042-1.446-1.968-1.446s-1.701 0.61-1.967 1.448v-24.184h3.935v24.182zm-3.253-24.902 5.581-5.832 5.581 5.832h-11.162zm6.35-6.139h11.292l-5.646 5.901-5.646-5.901zm6.481 6.139 5.581-5.832 5.582 5.832h-11.163zm6.351-6.139h11.293l-5.647 5.9-5.646-5.9zm6.481 6.139 5.582-5.832 5.58 5.832h-11.162zm6.35-6.139h11.293l-5.646 5.9-5.647-5.9zm6.483 6.139 5.58-5.832 5.581 5.832h-11.161zm5.653 52.047 0.048 0.064h0.002l5.271 7.287-5.32 7.355v-14.706zm0.698 15.666 5.316-7.352 5.318 7.352h-10.634zm11.303-0.998-5.291-7.316 5.272-7.287 0.019-0.024v14.627zm0-16.506-0.018-0.023h-0.001l-5.271-7.286 5.289-7.313v14.622zm0-16.727-5.291-7.316 5.272-7.287 0.019-0.025v14.628zm0-16.506-0.018-0.024-0.001 0.001-5.271-7.288 5.289-7.312v14.623zm-4.824-16.976 5.581-5.832 5.582 5.832h-11.163zm6.351-6.139h11.292l-5.646 5.9-5.646-5.9zm15.623 6.139h-9.143l5.582-5.832 3.561 3.721v2.111zm0-3.222-2.793-2.917h2.793v2.917zm0-5.107v1.471h-16.15l-3.652-21.772 22.975 20.3h-3.173z"/></svg>
