<?xml version="1.0" encoding="UTF-8" standalone="no"?>
<svg id="svg6364" xmlns:rdf="http://www.w3.org/1999/02/22-rdf-syntax-ns#" xmlns="http://www.w3.org/2000/svg" height="31.751mm" width="131.25mm" version="1.1" xmlns:cc="http://creativecommons.org/ns#" xmlns:dc="http://purl.org/dc/elements/1.1/" viewBox="0 0 465.06154 112.5025">
 <defs id="defs6366">
  <filter id="filter4643-0-8-6" style="color-interpolation-filters:sRGB">
   <feFlood id="feFlood4645-8-6-3" result="flood" flood-opacity=".19608" flood-color="rgb(0,0,0)"/>
   <feComposite id="feComposite4647-6-9-3" operator="in" result="composite1" in2="SourceGraphic" in="flood"/>
   <feGaussianBlur id="feGaussianBlur4649-4-9-7" stdDeviation="0.3" result="blur" in="composite1"/>
   <feOffset id="feOffset4651-4-6-8" result="offset" dx="0.3" dy="0.3"/>
   <feComposite id="feComposite4653-0-5-6" operator="over" result="composite2" in2="offset" in="SourceGraphic"/>
  </filter>
  <filter id="filter4535-3-6-2" style="color-interpolation-filters:sRGB">
   <feFlood id="feFlood4537-3-2-4" result="flood" flood-opacity=".19608" flood-color="rgb(0,0,0)"/>
   <feComposite id="feComposite4539-0-1-0" operator="in" result="composite1" in2="SourceGraphic" in="flood"/>
   <feGaussianBlur id="feGaussianBlur4541-8-6-2" stdDeviation="0.5" result="blur" in="composite1"/>
   <feOffset id="feOffset4543-3-7-0" result="offset" dx="0.5" dy="0.5"/>
   <feComposite id="feComposite4545-5-3-7" operator="over" result="composite2" in2="offset" in="SourceGraphic"/>
  </filter>
 </defs>
 <g id="layer1" transform="translate(-69.612 -130.4)">
  <text id="text4148-4-0-4-9" style="word-spacing:2px;letter-spacing:1px" xml:space="preserve" font-size="27.5px" filter="url(#filter4643-0-8-6)" line-height="125%" y="233.06068" x="152.51775" font-family="Quicksand" fill="#26c6da"><tspan id="tspan4150-7-2-4-1" style="word-spacing:2px;letter-spacing:0px" font-size="35px" y="233.06068" x="152.51775" font-family="Quicksand" fill="#26c6da">Cooking &amp; Living</tspan></text>
  <g id="text4144-5-7-7-3" transform="translate(-7.5747 -11.873)" filter="url(#filter4535-3-6-2)" fill="#ff7043">
   <path id="path4182-8-9-3-7" d="m206.57 150.77q0 0.72-2.16 3.24-0.9 1.08-2.61 4.23-1.62 3.15-3.51 7.56-1.89 4.32-3.87 9.54-1.98 5.13-3.6 10.26h0.81q1.53 0 2.79-0.36 1.35-0.36 2.43-0.81 1.08-0.54 1.8-0.9 0.81-0.36 1.17-0.36 0.9 0 0.9 1.08 0 0.72-1.08 2.16-0.99 1.44-2.7 2.97-1.71 1.44-3.87 2.7-2.07 1.17-4.32 1.44-1.26 5.49-1.26 9.45 0 3.15 0.99 4.59 1.08 1.35 3.15 1.35t3.96-1.17 3.42-2.7q1.71-1.62 3.24-3.87 0.18-0.27 0.54-0.63 0.27-0.18 0.54-0.36 0.36-0.27 0.81-0.27 0.63 0 1.17 0.54 0.63 0.45 0.63 1.26 0 0.36-0.18 0.72-0.09 0.36-0.27 0.72-0.27 0.36-0.45 0.9-1.98 3.15-4.5 5.49-2.16 2.07-5.13 3.78-2.97 1.62-6.66 1.62-2.25 0-4.5-0.9-2.16-0.9-3.96-2.52-1.71-1.62-2.79-3.87-1.08-2.34-1.08-5.13 0-2.25 0.36-4.95 0.36-2.79 1.08-5.76-3.24-0.99-6.75-2.16t-7.11-2.16q-1.89 6.3-4.41 11.43-2.43 5.04-5.67 8.64-3.24 3.51-7.47 5.49-4.14 1.89-9.54 1.89-4.68 0-8.55-1.35t-6.66-3.69q-2.7-2.43-4.23-5.58t-1.53-6.75q0-4.95 2.43-8.19 2.52-3.33 6.48-5.22 4.05-1.98 9-2.79 5.04-0.81 10.17-0.81 2.79 0 5.31 0.18 2.61 0.09 5.04 0.27 2.34-6.84 4.5-12.24 2.25-5.49 5.13-10.08-1.26 0-2.88-0.18-1.53-0.18-3.06-0.45t-2.97-0.45-2.52-0.18q-3.69 0-6.3 2.16-2.52 2.16-2.52 5.22 0 2.07 0.63 3.51 0.72 1.35 1.53 2.34 0.9 0.9 1.53 1.53 0.72 0.54 0.72 0.99 0 1.71-1.89 1.71-1.8 0-4.23-0.9-2.34-0.99-4.5-2.61-2.16-1.71-3.69-3.96-1.44-2.25-1.44-4.95 0-3.06 1.44-5.31 1.53-2.25 3.78-3.69 2.34-1.53 5.04-2.16 2.79-0.72 5.31-0.72 4.05 0 6.84 0.45t4.86 0.99 3.78 0.99q1.8 0.45 3.69 0.45 1.98-2.79 4.14-3.69 2.25-0.9 4.5-0.9 1.98 0 3.24 1.26 1.26 1.17 1.26 2.79 0 1.08-0.72 2.25-0.63 1.08-1.71 1.98-0.99 0.81-2.16 1.44t-2.25 0.81q-1.26 1.8-3.06 7.38-1.8 5.49-4.86 15.66 3.69 0.63 7.2 1.26t7.02 1.08q1.35-4.32 2.88-8.64 1.62-4.41 3.24-8.28 1.71-3.96 3.24-7.11 1.53-3.24 2.7-5.31 1.08-1.8 2.7-2.88 1.62-1.17 3.33-1.8 1.71-0.72 3.33-0.99t2.79-0.27q2.61 0 2.61 1.26zm-72.81 58.05q3.78 0 6.57-1.98 2.88-1.98 5.13-5.22 2.25-3.33 4.05-7.56t3.42-8.73q-0.9-0.09-1.8-0.09-0.81-0.09-1.71-0.09-5.31 0-9.63 1.35-4.32 1.26-7.38 3.42t-4.77 5.04q-1.62 2.88-1.62 6.03 0 1.71 0.63 3.15t1.71 2.52q1.08 0.99 2.43 1.62 1.44 0.54 2.97 0.54z"/>
   <path id="path4184-4-2-9-5" d="m213.05 197.39q2.43 0 4.59-1.35t3.69-3.24q1.62-1.98 2.52-4.05t0.9-3.51q0-1.8-1.62-1.8-1.89 0-3.69 1.53t-3.24 3.69q-1.35 2.16-2.25 4.59t-0.9 4.14zm24.21 6.48q-1.98 3.15-4.95 5.58-2.52 2.07-6.3 3.78-3.69 1.71-8.82 1.71-3.42 0-6.3-0.99t-4.95-2.7q-2.07-1.8-3.24-4.23t-1.17-5.31q0-5.13 1.89-9.36t4.77-7.2q2.88-3.06 6.21-4.68 3.42-1.62 6.39-1.62 2.07 0 3.87 0.81t3.15 2.16q1.35 1.26 2.07 2.97 0.81 1.71 0.81 3.51 0 1.62-0.72 3.96-0.72 2.25-2.43 4.32-1.62 2.07-4.5 3.6-2.79 1.44-7.02 1.44-0.99 0-2.07-0.27-0.63-0.09-1.35-0.27 0 4.05 2.34 6.21t5.58 2.16q3.15 0 5.76-1.26 2.61-1.35 4.41-2.88 2.16-1.8 3.69-4.14 0.09-0.27 0.45-0.63 0.18-0.18 0.54-0.36 0.36-0.27 0.81-0.27 0.72 0 1.26 0.54 0.63 0.54 0.63 1.26 0 0.36-0.18 0.72-0.09 0.27-0.27 0.63t-0.36 0.81z"/>
   <path id="path4186-7-2-3-0" d="m280.05 203.87q-1.98 3.15-4.41 5.58-2.07 2.07-4.95 3.78-2.79 1.71-6.12 1.71-3.78 0-6.39-1.89-2.61-1.98-3.06-5.76-1.8 2.25-3.87 3.87-1.8 1.44-4.05 2.61t-4.86 1.17q-1.8 0-3.51-0.72-1.62-0.63-2.88-1.89-1.17-1.26-1.89-2.97t-0.72-3.78q0-4.86 1.8-9.63 1.89-4.77 4.86-8.55 2.97-3.87 6.66-6.21t7.38-2.34q2.7 0 4.59 0.72 1.89 0.63 3.06 1.44 1.35 0.99 2.16 2.07 0.99 0 2.07 0.27 1.17 0.18 2.07 0.72 0.99 0.45 1.62 1.26t0.63 1.98q0 0.99-0.81 3.24t-1.8 5.04q-0.99 2.7-1.8 5.67-0.81 2.88-0.81 5.13 0 1.08 0.63 1.8 0.72 0.72 1.89 0.72 1.8 0 3.51-1.17 1.8-1.17 3.15-2.7 1.62-1.62 2.97-3.87 0.09-0.27 0.45-0.63 0.18-0.18 0.54-0.36 0.36-0.27 0.81-0.27 0.72 0 1.26 0.54 0.63 0.54 0.63 1.26 0 0.36-0.18 0.72-0.09 0.27-0.27 0.63t-0.36 0.81zm-20.88-15.93q0-1.98-0.99-2.88-0.9-0.99-2.25-0.99-1.98 0-4.05 2.07t-3.78 5.13q-1.62 2.97-2.7 6.48t-1.08 6.3q0 4.05 2.61 4.05 1.62 0 3.69-2.16 2.16-2.16 4.05-5.31t3.15-6.57q1.35-3.51 1.35-6.12z"/>
   <path id="path4188-2-5-9-2" d="m299.9 205.76q0 1.53 0.81 2.34t2.16 0.81q1.8 0 3.51-1.17 1.8-1.17 3.15-2.7 1.62-1.62 2.97-3.87 0.09-0.27 0.45-0.63 0.18-0.18 0.54-0.36 0.36-0.27 0.81-0.27 0.72 0 1.26 0.54 0.63 0.54 0.63 1.26 0 0.36-0.18 0.72-0.09 0.27-0.27 0.63t-0.36 0.81q-1.98 3.15-4.41 5.58-2.07 2.07-4.95 3.78-2.79 1.71-6.12 1.71-2.61 0-4.68-0.72t-3.6-1.89q-1.53-1.26-2.34-2.88t-0.81-3.51q0-2.97 0.9-5.58t1.89-4.77q1.08-2.16 1.98-3.78 0.9-1.71 0.9-2.79 0-0.72-0.9-1.08-0.81-0.36-1.8-0.63-1.17-0.27-2.7-0.45-2.61 6.57-4.95 10.8-2.34 4.14-3.78 6.21-0.18 0.27-0.72 0.81-0.45 0.54-1.26 0.54-0.72 0-1.26-0.54-0.63-0.63-0.63-1.35 0-0.63 0.45-1.17 0.36-0.63 0.54-0.99 1.26-1.8 3.51-5.67 2.34-3.96 4.32-10.35-0.9-0.63-1.53-1.62-0.54-0.81-0.99-2.07t-0.45-2.97q0-1.35 0.45-2.52 0.54-1.26 1.35-2.16t1.71-1.44 1.71-0.54q0.9 0 1.89 0.54 0.99 0.45 1.8 1.17 0.81 0.63 1.35 1.53 0.54 0.81 0.54 1.44 0 1.8-0.63 2.97-0.54 1.17-0.54 2.25 0 0.99 1.08 1.44t2.7 0.45q1.53 0 2.52-0.18 1.08-0.18 1.89-0.36 0.81-0.27 1.53-0.45t1.53-0.18q1.62 0 2.61 1.26 1.08 1.26 1.08 3.06 0 1.53-1.08 3.69-0.99 2.07-2.25 4.59t-2.34 5.31q-0.99 2.7-0.99 5.4z"/>
   <path id="path4190-1-2-2-5" d="m327.32 208.91q1.8 0 3.51-1.17 1.8-1.17 3.15-2.7 1.62-1.62 2.97-3.87 0.09-0.27 0.45-0.63 0.18-0.18 0.54-0.36 0.36-0.27 0.81-0.27 0.72 0 1.26 0.54 0.63 0.54 0.63 1.26 0 0.36-0.18 0.72-0.09 0.27-0.27 0.63t-0.36 0.81q-1.98 3.15-4.41 5.58-2.07 2.07-4.95 3.78-2.79 1.71-6.12 1.71-2.16 0-4.41-0.81-2.25-0.72-4.14-2.16-1.8-1.44-3.06-3.42-1.17-1.98-1.17-4.32 0-1.89 0.45-4.59 0.45-2.79 1.26-6.03t1.8-6.84q1.08-3.6 2.25-7.11h-2.43q-0.72 0-0.72-0.81 0-0.72 0.81-1.89 0.9-1.26 1.89-1.26h1.8q1.35-3.69 2.61-6.75 1.35-3.15 2.61-5.31 0.36-0.72 0.99-1.17 0.63-0.54 1.44-0.54 0.99 0 2.16 0.63 1.26 0.63 2.34 1.53 1.08 0.81 1.8 1.71t0.72 1.53-0.9 2.88q-0.81 2.16-2.07 5.49h6.03q0.72 0 0.72 0.81 0 0.36-0.27 0.9t-0.72 1.08q-0.36 0.45-0.81 0.81t-0.9 0.36h-5.58q-1.08 2.97-2.25 6.3-1.08 3.33-1.98 6.57t-1.53 6.3q-0.54 2.97-0.54 5.4 0 2.07 1.35 3.42 1.44 1.26 3.42 1.26z"/>
   <path id="path4192-2-5-3-1" d="m365.79 158.69q0-1.26-1.08-1.26-1.26 0-3.33 2.79-1.98 2.79-4.23 7.29-2.16 4.5-4.32 10.08t-3.51 11.25q1.53-1.26 3.33-3.6 1.89-2.34 3.69-5.22 1.8-2.97 3.51-6.12t2.97-6.03q1.35-2.97 2.16-5.4t0.81-3.78zm-15.75 56.25q-2.7 0-5.22-0.9-2.43-0.9-4.32-2.61-1.89-1.8-3.06-4.32-1.08-2.52-1.08-5.67 0-4.5 0.99-9.99 1.08-5.49 2.97-10.98 1.89-5.58 4.32-10.8 2.52-5.22 5.49-9.27 2.97-4.14 6.12-6.57 3.24-2.43 6.48-2.43 1.53 0 2.88 0.72t2.34 1.8q1.08 1.08 1.71 2.43 0.63 1.26 0.63 2.43 0 1.89-1.08 4.86-0.99 2.88-2.7 6.3-1.71 3.33-4.05 6.93-2.25 3.6-4.77 7.02-2.43 3.33-4.95 6.3-2.52 2.88-4.77 4.77-0.18 1.08-0.36 2.25-0.18 0.99-0.27 2.25-0.09 1.17-0.09 2.34 0 3.15 1.44 5.13 1.53 1.98 4.32 1.98 1.8 0 3.51-1.17 1.8-1.17 3.15-2.7 1.62-1.62 2.97-3.87 0.09-0.27 0.45-0.63 0.18-0.18 0.54-0.36 0.36-0.27 0.81-0.27 0.72 0 1.26 0.54 0.63 0.54 0.63 1.26 0 0.36-0.18 0.72-0.09 0.27-0.27 0.63t-0.36 0.81q-1.98 3.15-4.41 5.58-2.07 2.07-4.95 3.78-2.79 1.71-6.12 1.71z"/>
   <path id="path4194-0-4-9-4" d="m408.19 203.87q-1.98 3.15-4.41 5.58-2.07 2.07-4.95 3.78-2.79 1.71-6.12 1.71-3.78 0-6.39-1.89-2.61-1.98-3.06-5.76-1.8 2.25-3.87 3.87-1.8 1.44-4.05 2.61t-4.86 1.17q-1.8 0-3.51-0.72-1.62-0.63-2.88-1.89-1.17-1.26-1.89-2.97t-0.72-3.78q0-4.86 1.8-9.63 1.89-4.77 4.86-8.55 2.97-3.87 6.66-6.21t7.38-2.34q2.7 0 4.59 0.72 1.89 0.63 3.06 1.44 1.35 0.99 2.16 2.07 0.99 0 2.07 0.27 1.17 0.18 2.07 0.72 0.99 0.45 1.62 1.26t0.63 1.98q0 0.99-0.81 3.24t-1.8 5.04q-0.99 2.7-1.8 5.67-0.81 2.88-0.81 5.13 0 1.08 0.63 1.8 0.72 0.72 1.89 0.72 1.8 0 3.51-1.17 1.8-1.17 3.15-2.7 1.62-1.62 2.97-3.87 0.09-0.27 0.45-0.63 0.18-0.18 0.54-0.36 0.36-0.27 0.81-0.27 0.72 0 1.26 0.54 0.63 0.54 0.63 1.26 0 0.36-0.18 0.72-0.09 0.27-0.27 0.63t-0.36 0.81zm-20.88-15.93q0-1.98-0.99-2.88-0.9-0.99-2.25-0.99-1.98 0-4.05 2.07t-3.78 5.13q-1.62 2.97-2.7 6.48t-1.08 6.3q0 4.05 2.61 4.05 1.62 0 3.69-2.16 2.16-2.16 4.05-5.31t3.15-6.57q1.35-3.51 1.35-6.12z"/>
   <path id="path4196-9-5-0-8" d="m436.78 205.49q0 1.53 0.72 2.52 0.81 0.9 2.16 0.9 1.8 0 3.51-1.17 1.8-1.17 3.15-2.7 1.62-1.62 2.97-3.87 0.09-0.27 0.45-0.63 0.18-0.18 0.54-0.36 0.36-0.27 0.81-0.27 0.72 0 1.26 0.54 0.63 0.54 0.63 1.26 0 0.36-0.18 0.72-0.09 0.27-0.27 0.63t-0.36 0.81q-1.98 3.15-4.41 5.58-2.07 2.07-4.95 3.78-2.79 1.71-6.12 1.71-5.13 0-8.28-2.61-3.15-2.7-3.15-6.48 0-2.79 0.72-5.31 0.72-2.61 1.53-5.04 0.9-2.43 1.62-4.59 0.72-2.25 0.72-4.32 0-0.63-0.54-0.99-0.54-0.45-1.26-0.45-2.07 0-4.5 1.98-2.34 1.89-4.5 5.58-2.07 3.6-3.51 8.82-1.35 5.13-1.35 11.61 0 1.17-0.54 1.44-0.45 0.36-1.44 0.36-3.6 0-6.03-1.35-2.43-1.44-2.43-3.6 0-3.78 0.9-7.92 0.81-4.23 1.98-8.1 1.17-3.96 2.34-7.29 1.26-3.33 2.07-5.22 0.72-1.71 2.43-1.71 0.99 0 2.61 0.81t3.69 4.05q1.89-1.62 4.23-2.88 1.98-1.08 4.5-1.98t5.4-0.9q1.44 0 2.79 0.72 1.44 0.72 2.52 1.89 1.08 1.08 1.71 2.43t0.63 2.7q0 2.07-0.81 4.41-0.72 2.25-1.62 4.68-0.81 2.43-1.62 4.95-0.72 2.43-0.72 4.86z"/>
   <path id="path4198-6-1-5-3" d="m474.6 185.33q-0.36-0.36-0.72-0.72-0.36-0.27-0.81-0.45-0.45-0.27-0.99-0.27-2.16 0-4.41 2.07-2.16 2.07-3.96 5.13-1.71 2.97-2.79 6.39t-1.08 6.21q0 2.43 0.9 3.78t2.43 1.35q1.44 0 3.15-1.08 1.71-1.17 3.24-2.61 1.71-1.62 3.51-3.78 0.09-4.05 0.45-7.92 0.45-3.96 1.08-8.1zm9.63 3.78q3.96-6.48 7.11-12.42 1.35-2.52 2.61-5.13 1.35-2.7 2.34-5.13t1.62-4.5 0.63-3.6-1.26-1.53q-1.17 0-2.88 2.88-1.71 2.79-3.6 7.38t-3.69 10.35q-1.71 5.76-2.88 11.7zm0.9 25.83q-2.52 0-4.59-0.9-2.07-0.99-3.6-2.34-1.44-1.35-2.34-2.88-0.81-1.53-0.9-2.7-2.16 2.52-4.59 4.41-2.07 1.71-4.77 3.06-2.61 1.35-5.4 1.35-1.89 0-3.78-0.81-1.8-0.81-3.24-2.25t-2.34-3.51-0.9-4.5q0-5.49 2.16-10.08 2.16-4.68 5.4-7.92 3.24-3.33 6.93-5.13 3.78-1.89 6.93-1.89 1.26 0 2.34 0.27 1.08 0.18 1.8 0.45 0.9 0.36 1.53 0.72 1.53-5.49 3.69-10.71t4.68-9.27q2.61-4.05 5.49-6.48t6.03-2.43q1.35 0 2.7 0.72 1.44 0.72 2.52 1.89 1.17 1.17 1.89 2.7t0.72 3.06q0 1.62-0.9 4.05-0.81 2.43-2.25 5.31-1.35 2.79-3.15 5.85-1.71 3.06-3.6 6.03-4.32 6.93-9.9 14.76-0.18 1.17-0.27 2.34-0.09 1.08-0.09 2.16 0 3.78 1.17 6.21t3.69 2.43q1.8 0 3.51-1.17t3.06-2.7q1.62-1.62 2.97-3.87 0.09-0.27 0.45-0.63 0.18-0.18 0.54-0.36 0.36-0.27 0.81-0.27 0.72 0 1.26 0.54 0.63 0.54 0.63 1.26 0 0.36-0.18 0.72-0.09 0.27-0.27 0.63t-0.36 0.81q-1.98 3.15-4.41 5.58-2.07 2.07-4.95 3.78-2.79 1.71-6.12 1.71z"/>
  </g>
 </g>
</svg>
