<?xml version="1.0" encoding="UTF-8" standalone="no"?>
<!-- Created with Inkscape (http://www.inkscape.org/) -->

<svg
   xmlns:osb="http://www.openswatchbook.org/uri/2009/osb"
   xmlns:dc="http://purl.org/dc/elements/1.1/"
   xmlns:cc="http://creativecommons.org/ns#"
   xmlns:rdf="http://www.w3.org/1999/02/22-rdf-syntax-ns#"
   xmlns:svg="http://www.w3.org/2000/svg"
   xmlns="http://www.w3.org/2000/svg"
   xmlns:xlink="http://www.w3.org/1999/xlink"
   xmlns:sodipodi="http://sodipodi.sourceforge.net/DTD/sodipodi-0.dtd"
   xmlns:inkscape="http://www.inkscape.org/namespaces/inkscape"
   width="210mm"
   height="297mm"
   viewBox="0 0 744.09448819 1052.3622047"
   id="svg2"
   version="1.1"
   inkscape:version="0.91 r"
   sodipodi:docname="logo-concepts.svg">
  <defs
     id="defs4">
    <linearGradient
       id="linearGradient4212"
       osb:paint="solid">
      <stop
         style="stop-color:#ffffff;stop-opacity:1;"
         offset="0"
         id="stop4214" />
    </linearGradient>
    <linearGradient
       inkscape:collect="always"
       xlink:href="#linearGradient4212"
       id="linearGradient4216"
       x1="58.243707"
       y1="267.70781"
       x2="353.86293"
       y2="267.70781"
       gradientUnits="userSpaceOnUse" />
  </defs>
  <sodipodi:namedview
     id="base"
     pagecolor="#ffffff"
     bordercolor="#666666"
     borderopacity="1.0"
     inkscape:pageopacity="0.0"
     inkscape:pageshadow="2"
     inkscape:zoom="0.98994949"
     inkscape:cx="157.19912"
     inkscape:cy="656.80358"
     inkscape:document-units="px"
     inkscape:current-layer="layer1"
     showgrid="false"
     inkscape:window-width="1366"
     inkscape:window-height="716"
     inkscape:window-x="0"
     inkscape:window-y="0"
     inkscape:window-maximized="1" />
  <metadata
     id="metadata7">
    <rdf:RDF>
      <cc:Work
         rdf:about="">
        <dc:format>image/svg+xml</dc:format>
        <dc:type
           rdf:resource="http://purl.org/dc/dcmitype/StillImage" />
        <dc:title />
      </cc:Work>
    </rdf:RDF>
  </metadata>
  <g
     inkscape:label="Layer 1"
     inkscape:groupmode="layer"
     id="layer1">
    <text
       xml:space="preserve"
       style="font-style:normal;font-variant:normal;font-weight:300;font-stretch:normal;font-size:40px;line-height:125%;font-family:'Mukta Vaani';-inkscape-font-specification:'Mukta Vaani Light';letter-spacing:0px;word-spacing:0px;fill:#000000;fill-opacity:1;stroke:none;stroke-width:1px;stroke-linecap:butt;stroke-linejoin:miter;stroke-opacity:1"
       x="112.44994"
       y="179.97417"
       id="text3336"
       sodipodi:linespacing="125%"><tspan
         sodipodi:role="line"
         id="tspan3338"
         x="112.44994"
         y="179.97417"
         style="font-style:normal;font-variant:normal;font-weight:300;font-stretch:normal;font-size:226.25px;font-family:'Mukta Vaani';-inkscape-font-specification:'Mukta Vaani Light'">L</tspan></text>
    <text
       xml:space="preserve"
       style="font-style:normal;font-weight:normal;font-size:40px;line-height:125%;font-family:sans-serif;letter-spacing:0px;word-spacing:0px;fill:#000000;fill-opacity:1;stroke:none;stroke-width:1px;stroke-linecap:butt;stroke-linejoin:miter;stroke-opacity:1"
       x="72.589279"
       y="92.709618"
       id="text3340"
       sodipodi:linespacing="125%"><tspan
         sodipodi:role="line"
         id="tspan3342"
         x="72.589279"
         y="92.709618"
         style="font-style:normal;font-variant:normal;font-weight:bold;font-stretch:normal;font-size:90px;font-family:'Mukta Vaani';-inkscape-font-specification:'Mukta Vaani Bold';fill:#ff0000;fill-opacity:1">Clayton</tspan></text>
    <text
       xml:space="preserve"
       style="font-style:normal;font-weight:normal;font-size:40px;line-height:125%;font-family:sans-serif;letter-spacing:0px;word-spacing:0px;fill:#000000;fill-opacity:1;stroke:none;stroke-width:1px;stroke-linecap:butt;stroke-linejoin:miter;stroke-opacity:1"
       x="154.64668"
       y="162.88179"
       id="text3340-2"
       sodipodi:linespacing="125%"><tspan
         sodipodi:role="line"
         id="tspan3342-7"
         x="154.64668"
         y="162.88179"
         style="font-style:normal;font-variant:normal;font-weight:bold;font-stretch:normal;font-size:90px;font-family:'Mukta Vaani';-inkscape-font-specification:'Mukta Vaani Bold'">ocher</tspan></text>
    <text
       xml:space="preserve"
       style="font-style:normal;font-weight:normal;font-size:40px;line-height:125%;font-family:sans-serif;letter-spacing:0px;word-spacing:0px;fill:#000000;fill-opacity:1;stroke:#ffffff;stroke-width:1px;stroke-linecap:butt;stroke-linejoin:miter;stroke-opacity:1;"
       x="134.38431"
       y="335.12143"
       id="text3340-2-7"
       sodipodi:linespacing="125%"><tspan
         sodipodi:role="line"
         id="tspan3342-7-2"
         x="134.38431"
         y="335.12143"
         style="font-style:normal;font-variant:normal;font-weight:600;font-stretch:normal;font-size:90px;font-family:'Mukta Vaani';-inkscape-font-specification:'Mukta Vaani Semi-Bold';letter-spacing:-3.20000005px;fill:#000000;fill-opacity:1;stroke:#ffffff;stroke-opacity:1;">Locher</tspan></text>
    <text
       xml:space="preserve"
       style="font-style:normal;font-weight:normal;font-size:40px;line-height:125%;font-family:sans-serif;letter-spacing:0px;word-spacing:0px;fill:#000000;fill-opacity:1;stroke:#ffffff;stroke-width:1;stroke-linecap:butt;stroke-linejoin:miter;stroke-miterlimit:4;stroke-dasharray:none;stroke-opacity:1;"
       x="55.143707"
       y="290.00281"
       id="text3340-4"
       sodipodi:linespacing="125%"><tspan
         sodipodi:role="line"
         id="tspan3342-71"
         x="55.143707"
         y="290.00281"
         style="font-style:normal;font-variant:normal;font-weight:600;font-stretch:normal;font-size:90px;font-family:'Mukta Vaani';-inkscape-font-specification:'Mukta Vaani Semi-Bold';letter-spacing:-2px;fill:#000000;fill-opacity:1;stroke:#ffffff;stroke-width:1;stroke-linejoin:miter;stroke-miterlimit:4;stroke-dasharray:none;stroke-opacity:1;">Clayton</tspan></text>
    <text
       xml:space="preserve"
       style="font-style:normal;font-weight:normal;font-size:40px;line-height:125%;font-family:sans-serif;letter-spacing:0px;word-spacing:0px;fill:#555555;fill-opacity:1;stroke:#ffffff;stroke-width:1px;stroke-linecap:butt;stroke-linejoin:miter;stroke-opacity:1"
       x="163.67851"
       y="497.25385"
       id="text3340-2-7-6"
       sodipodi:linespacing="125%"><tspan
         sodipodi:role="line"
         id="tspan3342-7-2-5"
         x="163.67851"
         y="497.25385"
         style="font-style:normal;font-variant:normal;font-weight:500;font-stretch:normal;font-size:90px;font-family:'Mukta Vaani';-inkscape-font-specification:'Mukta Vaani Medium';fill:#555555;fill-opacity:1;stroke:#ffffff;stroke-opacity:1">ocher</tspan></text>
    <text
       xml:space="preserve"
       style="font-style:normal;font-weight:normal;font-size:40px;line-height:125%;font-family:sans-serif;letter-spacing:0px;word-spacing:0px;fill:#555555;fill-opacity:1;stroke:#ffffff;stroke-width:1;stroke-linecap:butt;stroke-linejoin:miter;stroke-miterlimit:4;stroke-dasharray:none;stroke-opacity:1"
       x="171.9218"
       y="438.88058"
       id="text3340-4-0"
       sodipodi:linespacing="125%"><tspan
         sodipodi:role="line"
         id="tspan3342-71-8"
         x="171.9218"
         y="438.88058"
         style="font-style:normal;font-variant:normal;font-weight:bold;font-stretch:normal;font-size:90px;font-family:'Mukta Vaani';-inkscape-font-specification:'Mukta Vaani Bold';fill:#555555;fill-opacity:1;stroke:#ffffff;stroke-width:1;stroke-linejoin:miter;stroke-miterlimit:4;stroke-dasharray:none;stroke-opacity:1">layton</tspan></text>
    <path
       id="path6301"
       d="M 78.90625 385.05078 L 68.464844 413.73828 C 69.783432 414.62702 71.20081 415.34868 72.726562 415.90039 C 75.698251 416.9445 78.874659 417.4707 82.271484 417.4707 C 82.644566 417.4707 82.982715 417.45345 83.34375 417.44727 L 93.236328 390.26758 L 78.90625 385.05078 z M 67.761719 415.66797 L 63.896484 426.28711 C 64.301211 426.4562 64.704668 426.62592 65.119141 426.7832 C 69.433774 428.39206 74.051001 429.27462 78.978516 429.4375 L 82.609375 419.46289 C 82.493363 419.46348 82.388552 419.4707 82.271484 419.4707 C 78.66831 419.4707 75.259431 418.91162 72.064453 417.78906 L 72.060547 417.78711 L 72.056641 417.78516 C 70.534707 417.23557 69.10276 416.52695 67.761719 415.66797 z M 63.212891 428.16602 L 51.970703 459.05273 L 96.724609 475.33984 L 100.91406 463.83008 L 70.492188 452.75586 L 78.259766 431.41211 C 73.374719 431.18763 68.756165 430.27242 64.421875 428.65625 L 64.417969 428.65625 L 64.416016 428.6543 C 64.008506 428.49972 63.611992 428.33172 63.212891 428.16602 z "
       style="font-style:normal;font-weight:normal;font-size:40px;line-height:125%;font-family:sans-serif;letter-spacing:0px;word-spacing:0px;fill:#ff5555;fill-opacity:1;stroke:#ffffff;stroke-width:0;stroke-linecap:butt;stroke-linejoin:miter;stroke-miterlimit:4;stroke-dasharray:none;stroke-opacity:1" />
    <path
       id="path6299"
       d="m 80.768946,349.96816 c -5.893518,0 -11.223307,0.93997 -16.011718,2.80664 l -0.0078,0.002 -0.0078,0.002 c -4.791863,1.7868 -8.9103,4.37457 -12.390625,7.77148 -3.393373,3.39338 -6.023981,7.55333 -7.896485,12.51954 l -0.002,0.002 0,0.004 c -1.866821,4.86998 -2.808594,10.36981 -2.808594,16.51758 0,6.31041 0.981673,11.92838 2.927735,16.87696 l 0,0.002 0.002,0.004 c 1.954024,4.883 4.628159,9.00566 8.023437,12.40234 2.940884,2.80145 6.313419,5.05015 10.126953,6.75976 l 3.845704,-10.56445 0.08789,-0.23828 c -1.103569,-0.78447 -2.143154,-1.67182 -3.109375,-2.67383 -2.359037,-2.44641 -4.219089,-5.53155 -5.591797,-9.2207 l -0.002,-0.004 -0.002,-0.002 c -1.383223,-3.80386 -2.058594,-8.25291 -2.058594,-13.3418 0,-5.25269 0.674386,-9.74405 2.0625,-13.47461 l 0.002,-0.006 0.002,-0.006 c 1.456027,-3.76856 3.358711,-6.85481 5.726562,-9.22266 2.438558,-2.43856 5.293408,-4.19461 8.523438,-5.24219 3.268886,-1.11638 6.711007,-1.67383 10.308593,-1.67383 3.489838,0 6.580649,0.38115 9.277344,1.16407 2.273566,0.66006 4.499042,1.60025 6.705078,2.63671 l 2.914062,-9.57421 c -2.209303,-1.07523 -4.719538,-2.06529 -7.781249,-2.88672 -3.290889,-0.88292 -7.589193,-1.33985 -12.865235,-1.33985 z m 17.728516,65.88868 c -1.959556,0.94947 -4.05423,1.7533 -6.361328,2.33007 -2.436796,0.60921 -5.353048,0.92711 -8.707031,1 l -3.646485,10.01758 c 0.20451,0.002 0.405756,0.0137 0.611328,0.0137 5.112904,0 9.418386,-0.41529 12.898438,-1.22461 3.181441,-0.73987 5.765477,-1.62634 7.896486,-2.60937 l -2.691408,-9.52734 z m -30.427734,0.94335 -3.15625,8.66993 c 0.09995,0.0397 0.203054,0.0851 0.302734,0.12304 l 0.0059,0.002 c 3.994488,1.48877 8.279188,2.29296 12.832032,2.51172 l 2.902343,-7.97266 c -3.310903,-0.10198 -6.493785,-0.6063 -9.476562,-1.6543 l -0.01563,-0.006 -0.04297,-0.0156 -0.02148,-0.0117 c -1.176351,-0.43277 -2.254968,-1.03748 -3.330078,-1.64649 z"
       style="font-style:normal;font-weight:normal;font-size:40px;line-height:125%;font-family:sans-serif;letter-spacing:0px;word-spacing:0px;fill:#555555;fill-opacity:1;stroke:#ffffff;stroke-width:0;stroke-linecap:butt;stroke-linejoin:miter;stroke-miterlimit:4;stroke-dasharray:none;stroke-opacity:1"
       inkscape:connector-curvature="0" />
    <path
       style="font-style:normal;font-weight:normal;font-size:40px;line-height:125%;font-family:sans-serif;letter-spacing:0px;word-spacing:0px;fill:#ff5555;fill-opacity:1;stroke:#ffffff;stroke-width:2;stroke-linecap:butt;stroke-linejoin:miter;stroke-miterlimit:4;stroke-dasharray:none;stroke-opacity:1"
       d="M 78.90625 385.05078 L 68.464844 413.73828 C 69.783432 414.62702 71.20081 415.34868 72.726562 415.90039 C 75.698251 416.9445 78.874659 417.4707 82.271484 417.4707 C 82.644566 417.4707 82.982715 417.45345 83.34375 417.44727 L 93.236328 390.26758 L 78.90625 385.05078 z M 67.761719 415.66797 L 63.896484 426.28711 C 64.301211 426.4562 64.704668 426.62592 65.119141 426.7832 C 69.433774 428.39206 74.051001 429.27462 78.978516 429.4375 L 82.609375 419.46289 C 82.493363 419.46348 82.388552 419.4707 82.271484 419.4707 C 78.66831 419.4707 75.259431 418.91162 72.064453 417.78906 L 72.060547 417.78711 L 72.056641 417.78516 C 70.534707 417.23557 69.10276 416.52695 67.761719 415.66797 z M 63.212891 428.16602 L 51.970703 459.05273 L 96.724609 475.33984 L 100.91406 463.83008 L 70.492188 452.75586 L 78.259766 431.41211 C 73.374719 431.18763 68.756165 430.27242 64.421875 428.65625 L 64.417969 428.65625 L 64.416016 428.6543 C 64.008506 428.49972 63.611992 428.33172 63.212891 428.16602 z "
       id="text3340-4-5-0" />
    <text
       xml:space="preserve"
       style="font-style:normal;font-weight:normal;font-size:40px;line-height:125%;font-family:sans-serif;letter-spacing:0px;word-spacing:0px;fill:#000000;fill-opacity:1;stroke:none;stroke-width:1px;stroke-linecap:butt;stroke-linejoin:miter;stroke-opacity:1"
       x="275.71429"
       y="403.43362"
       id="text4273"
       sodipodi:linespacing="125%"><tspan
         sodipodi:role="line"
         id="tspan4275"
         x="275.71429"
         y="403.43362" /></text>
    <text
       xml:space="preserve"
       style="font-style:normal;font-weight:normal;font-size:40px;line-height:125%;font-family:sans-serif;letter-spacing:0px;word-spacing:0px;fill:#000000;fill-opacity:1;stroke:#ffffff;stroke-width:1px;stroke-linecap:butt;stroke-linejoin:miter;stroke-opacity:1"
       x="466.79596"
       y="324.65433"
       id="text3340-2-7-8"
       sodipodi:linespacing="125%"><tspan
         sodipodi:role="line"
         id="tspan3342-7-2-53"
         x="466.79596"
         y="324.65433"
         style="font-style:normal;font-variant:normal;font-weight:600;font-stretch:normal;font-size:90px;font-family:'Mukta Vaani';-inkscape-font-specification:'Mukta Vaani Semi-Bold';letter-spacing:2px;fill:#000000;fill-opacity:1;stroke:#ffffff;stroke-opacity:1"><tspan
   style="letter-spacing:2px;fill:#000000;fill-opacity:0"
   id="tspan4406">L</tspan>ocher</tspan></text>
    <text
       xml:space="preserve"
       style="font-style:normal;font-weight:normal;font-size:40px;line-height:125%;font-family:sans-serif;letter-spacing:0px;word-spacing:0px;fill:#000000;fill-opacity:1;stroke:#ffffff;stroke-width:1px;stroke-linecap:butt;stroke-linejoin:miter;stroke-opacity:1"
       x="533.70685"
       y="185.0192"
       id="text3340-2-7-8-8"
       sodipodi:linespacing="125%"
       transform="matrix(0.96592583,0.25881905,-0.25881905,0.96592583,0,0)"><tspan
         sodipodi:role="line"
         id="tspan3342-7-2-53-9"
         x="533.70685"
         y="185.0192"
         style="font-style:normal;font-variant:normal;font-weight:600;font-stretch:normal;font-size:90px;font-family:'Mukta Vaani';-inkscape-font-specification:'Mukta Vaani Semi-Bold';letter-spacing:-3.20000005px;fill:#000000;fill-opacity:1;stroke:#ffffff;stroke-opacity:1">L</tspan></text>
    <text
       xml:space="preserve"
       style="font-style:normal;font-weight:normal;font-size:40px;line-height:125%;font-family:sans-serif;letter-spacing:0px;word-spacing:0px;fill:#000000;fill-opacity:1;stroke:#ffffff;stroke-width:1;stroke-linecap:butt;stroke-linejoin:miter;stroke-miterlimit:4;stroke-dasharray:none;stroke-opacity:1"
       x="402.41248"
       y="279.96429"
       id="text3340-4-05"
       sodipodi:linespacing="125%"><tspan
         sodipodi:role="line"
         id="tspan3342-71-0"
         x="402.41248"
         y="279.96429"
         style="font-style:normal;font-variant:normal;font-weight:600;font-stretch:normal;font-size:90px;font-family:'Mukta Vaani';-inkscape-font-specification:'Mukta Vaani Semi-Bold';letter-spacing:-2px;fill:#000000;fill-opacity:1;stroke:#ffffff;stroke-width:1;stroke-linejoin:miter;stroke-miterlimit:4;stroke-dasharray:none;stroke-opacity:1">Clayton</tspan></text>
  </g>
</svg>
